<svg xmlns="http://www.w3.org/2000/svg" version="1.1" xmlns:xlink="http://www.w3.org/1999/xlink" xmlns:svgjs="http://svgjs.dev/svgjs" width="2000" height="510" viewBox="0 0 2000 510"><g transform="matrix(1,0,0,1,-1.2112696095522324,-0.037045428293680516)"><svg viewBox="0 0 396 101" data-background-color="#ffffff" preserveAspectRatio="xMidYMid meet" height="510" width="2000" xmlns="http://www.w3.org/2000/svg" xmlns:xlink="http://www.w3.org/1999/xlink"><g id="tight-bounds" transform="matrix(1,0,0,1,0.24008861730862918,0.007623939378760269)"><svg viewBox="0 0 395.52 100.98469978494623" height="100.98469978494623" width="395.52"><g><svg viewBox="0 0 395.52 100.98469978494623" height="100.98469978494623" width="395.52"><g><svg viewBox="0 0 395.52 100.98469978494623" height="100.98469978494623" width="395.52"><g id="textblocktransform"><svg viewBox="0 0 395.52 100.98469978494623" height="100.98469978494623" width="395.52" id="textblock"><g><svg viewBox="0 0 395.52 100.98469978494623" height="100.98469978494623" width="395.52"><path d="M394.594 21.659C392.735 11.177 387.435 8.263 387.435 8.263 371.165-2.534 350.86-0.207 332.619 1.345 300.414 1.408 268.339 3.714 236.208 4.951 168.767 5.139 100.749 2.037 33.643 9.689 27.339 12.037-6.54 10.15 1.121 23.001 3.129 28.347 10.456 34.28 10.232 39.185 11.236 40.045 12.631 38.074 13.226 39.311 15.309 42.645 18.711 41.072 21.501 43.043 17.614 48.305 20.403 52.687 23.062 57.278 18.377 58.473 12.371 57.907 9.675 61.869 9.396 64.741 7.89 64.196 6.235 64.07 5.026 63.986 2.59 64.301 2.999 65.202 4.394 68.284-1.594 70.066 2.162 73.085-0.422 76.355 3.948 79.185 3.353 82.728 3.278 83.441 3.687 84.049 4.338 84.217 7.22 85.118 3.018 86.879 3.464 88.787 33.029 101.827 65.104 92.812 95.394 98.808 103.259 94.615 97.346 100.297 100.489 99.416 102.943 98.389 104.728 102.645 107.499 100.234 107.927 99.542 107.276 97.907 108.8 98.221 109.6 98.389 110.307 98.347 110.418 97.383 110.586 95.936 109.117 96.837 108.726 96.083 112.947 92.267 111.906 101.345 115.866 100.967 115.68 99.856 114.528 98.263 116.889 98.473 119.232 96.879 119.306 95.559 121.389 99.144 121.463 99.919 121.835 100.464 122.43 100.842 128.938 96.942 135.409 102.225 142.233 100.464 146.417 98.536 150.433 101.513 154.672 100.779 156.16 100.192 157.666 99.144 159.098 100.905 176.632 101.282 195.319 99.71 211.943 100.967 256.364 98.619 303.836 101.932 350.674 98.829 361.719 97.634 373.192 95.936 383.958 94.573 383.958 94.573 392.679 90.842 392.679 74.07S394.538 59.395 394.817 46.041C395.096 32.687 396.398 32.141 394.538 21.659Z" opacity="1" fill="#ffffff" data-fill-palette-color="tertiary"></path><g transform="matrix(1,0,0,1,55.76832,26.230666666666668)"><svg width="283.98335999999995" viewBox="1.05 -32.95 198.38 33.900000000000006" height="48.5233664516129" data-palette-color="#ffffff"><path d="M10.9-30.8L10.9-30.8Q10.35-27.05 10.35-16.8 10.35-6.55 11-1.75L11-1.75Q13.65-1.5 16.5-0.8L16.5-0.8 16.35 0.4Q12.65 0 8.33 0 4 0 1.35 0.4L1.35 0.4 1.15-0.85Q3.4-1.55 5.95-1.9L5.95-1.9Q6.5-6 6.5-14.8L6.5-14.8 6.5-17.75Q6.5-25.85 5.85-30.65L5.85-30.65Q3.3-31 1.05-31.7L1.05-31.7 1.25-32.95Q3.9-32.55 8.22-32.55 12.55-32.55 16.25-32.95L16.25-32.95 16.4-31.75Q13.55-31.05 10.9-30.8ZM18.65-24.7L18.65-25.95 30.15-26.3Q35.85-26.3 38.92-23.6 42-20.9 42-15.53 42-10.15 38.62-5.5 35.25-0.85 30.25 0.6L30.25 0.6Q28.95 0.6 26.87 0.13 24.8-0.35 23.45-0.9L23.45-0.9Q22.9-0.25 22.45 0.95L22.45 0.95 21.4 0.7Q22.35-3.75 22.35-11.88 22.35-20 21.9-24.05L21.9-24.05Q20.2-24.7 18.65-24.7L18.65-24.7ZM35.85-20.95Q34.95-22.65 33.32-23.6 31.7-24.55 29.77-24.55 27.85-24.55 26.45-24L26.45-24Q26.1-20.75 26.1-13.63 26.1-6.5 26.3-3.75L26.3-3.75Q28.8-2.6 31.42-2.6 34.05-2.6 35.6-3.95L35.6-3.95Q37.5-7.55 37.5-12.8L37.5-12.8Q37.5-17.7 35.85-20.95L35.85-20.95ZM50.34-12.35Q50.5-7.9 52-5.4 53.5-2.9 57.09-2.9 60.7-2.9 63.75-5.95L63.75-5.95 64.45-5.25Q61.09-1 56.4 0.6L56.4 0.6Q51.55 0.6 48.8-2.48 46.05-5.55 46.05-10.78 46.05-16 49.3-20.6 52.55-25.2 57.59-26.65L57.59-26.65Q61.25-26.65 65.84-25.9L65.84-25.9 65.8-24.8Q64.84-24.8 64-24.45L64-24.45Q63.05-22.2 62.75-19.1L62.75-19.1 61.5-19.1Q61.09-20.8 61.09-22.6L61.09-22.6Q59.2-23.55 56.59-23.55 54-23.55 52.3-22.15L52.3-22.15Q50.59-19.05 50.34-14.75L50.34-14.75Q52.45-14.4 54.84-14.4L54.84-14.4Q59-14.4 59.84-16.15L59.84-16.15 60.9-16Q60.45-14.5 60.45-13.05 60.45-11.6 60.8-9.5L60.8-9.5 59.59-9.3Q59.05-10.8 58.8-12.4L58.8-12.4Q56.8-12.6 54.82-12.6 52.84-12.6 50.34-12.35L50.34-12.35ZM71.44-25.3L71.59-26.6Q76.29-26.05 81.09-26.05 85.89-26.05 90.54-26.6L90.54-26.6 90.74-25.3Q89.24-24.7 87.64-24.4L87.64-24.4Q87.09-20.3 87.09-13 87.09-5.7 87.64-1.6L87.64-1.6Q88.64-1.45 91.34-0.85L91.34-0.85 91.14 0.4Q88.74 0 84.99 0 81.24 0 79.24 0.4L79.24 0.4 79.04-0.9Q80.74-1.45 82.89-1.7L82.89-1.7Q83.19-4.6 83.34-9.75L83.34-9.75Q80.99-10 78.64-10 76.29-10 74.54-9.75L74.54-9.75Q73.54-5.65 73.54-4.05L73.54-4.05Q73.54-1.6 75.29-0.6L75.29-0.6 75.09 0.25Q73.94 0 70.74 0 67.54 0 65.69 0.4L65.69 0.4 65.49-0.9Q66.69-1.35 68.79-1.7L68.79-1.7 75.29-24.5Q73.09-24.85 71.44-25.3L71.44-25.3ZM77.89-24.05L74.94-12.1Q76.89-11.8 79.27-11.8 81.64-11.8 83.34-12.1L83.34-12.1Q83.34-21.35 82.94-24.05L82.94-24.05Q81.24-24.15 80.42-24.15 79.59-24.15 77.89-24.05L77.89-24.05ZM95.09-24.95L95.09-25.95 106.59-26.3Q111.09-26.3 113.34-24.98 115.59-23.65 115.59-20.15L115.59-20.15Q115.59-17.75 114.12-15.9 112.64-14.05 110.24-13.15L110.24-13.15 115.84-1.7Q117.54-1.4 119.04-1L119.04-1 118.84 0.35Q116.74 0 114.12 0 111.49 0 109.99 0.25L109.99 0.25 109.79-0.55Q110.44-1.2 110.44-2.7L110.44-2.7Q110.44-5.75 106.94-12.5L106.94-12.5Q105.89-12.7 104.49-12.7L104.49-12.7 104.59-14.15 105.09-14.15Q110.99-14.15 110.99-19.55L110.99-19.55Q110.99-24.55 105.94-24.55L105.94-24.55Q104.24-24.55 102.89-24L102.89-24Q102.54-20.7 102.54-12.7 102.54-4.7 102.99-1.65L102.99-1.65Q105.19-1.4 107.09-0.9L107.09-0.9 106.94 0.35Q104.34 0 101.12 0 97.89 0 95.34 0.4L95.34 0.4 95.14-0.9Q96.54-1.35 98.29-1.65L98.29-1.65Q98.79-5.4 98.79-13.33 98.79-21.25 98.34-24.3L98.34-24.3Q96.39-24.95 95.09-24.95L95.09-24.95ZM129.24-24.4L129.24-24.4Q128.84-21.7 128.84-13.35 128.84-5 129.29-1.65L129.29-1.65Q131.54-1.4 133.44-0.9L133.44-0.9 133.29 0.35Q130.69 0 127.46 0 124.24 0 121.69 0.4L121.69 0.4 121.49-0.9Q122.89-1.35 124.64-1.65L124.64-1.65Q125.09-5.25 125.09-11.85L125.09-11.85 125.09-14.2Q125.09-20.8 124.59-24.4L124.59-24.4Q122.84-24.7 121.44-25.15L121.44-25.15 121.64-26.45Q124.19-26.05 127.41-26.05 130.64-26.05 133.24-26.4L133.24-26.4 133.39-25.15Q131.49-24.65 129.24-24.4ZM157.74-14.2L157.74-14.2 157.74-11.85Q157.74-5 158.24-1.6L158.24-1.6Q160.53-1.3 162.03-0.9L162.03-0.9 161.88 0.35Q159.44 0 156.86 0 154.28 0 153.34 0.15L153.34 0.15 153.13-0.5Q153.59-1 153.74-3.35L153.74-3.35Q151.13-0.65 147.74 0.6L147.74 0.6Q139.13 0.6 139.13-9.65L139.13-9.65Q139.13-11.9 139.49-16.85 139.84-21.8 139.84-22.65 139.84-23.5 139.53-24.3L139.53-24.3 139.53-24.35Q137.44-24.7 136.19-25.1L136.19-25.1 136.38-26.45Q139.28-26.05 141.63-26.05 143.99-26.05 145.49-26.3L145.49-26.3 145.69-25.45Q143.88-24.5 143.59-22L143.59-22Q142.99-17.2 142.99-12.15 142.99-7.1 144.16-4.98 145.34-2.85 148.56-2.85 151.78-2.85 153.78-4.7L153.78-4.7Q153.99-8.7 153.99-14.15 153.99-19.6 153.59-24.4L153.59-24.4Q151.34-24.65 149.44-25.15L149.44-25.15 149.59-26.4Q152.19-26.05 155.41-26.05 158.63-26.05 161.19-26.45L161.19-26.45 161.38-25.15Q159.99-24.7 158.24-24.4L158.24-24.4Q157.74-21.05 157.74-14.2ZM178.68-1.5L178.68-2.8Q178.68-5.9 177.13-12.08 175.58-18.25 173.68-24.05L173.68-24.05 173.48-24 172.23-14.7Q171.43-8.95 171.43-4.35L171.43-4.35Q171.43-1.55 173.18-0.6L173.18-0.6 172.98 0.25Q171.48 0 169.06 0 166.63 0 163.73 0.4L163.73 0.4 163.53-0.9Q165.23-1.45 166.73-1.7L166.73-1.7 171.38-24.5Q168.78-24.95 167.53-25.3L167.53-25.3 167.68-26.6Q171.28-26.05 174.36-26.05 177.43-26.05 179.13-26.4L179.13-26.4 179.23-25.55Q177.88-25.2 177.88-24.4L177.88-24.4Q177.88-23.3 180.98-11.7L180.98-11.7 182.08-7.95 182.43-8.05Q182.43-9.35 186.98-24.35L186.98-24.35Q186.98-25.2 185.63-25.55L185.63-25.55 185.73-26.4Q187.43-26.05 190.56-26.05 193.68-26.05 197.23-26.6L197.23-26.6 197.38-25.3Q196.03-24.95 193.93-24.55L193.93-24.55Q193.78-23.35 193.78-21.03 193.78-18.7 194.43-11.5 195.08-4.3 195.63-1.6L195.63-1.6Q197.48-1.35 199.43-0.9L199.43-0.9 199.28 0.35Q196.68 0 193.51 0 190.33 0 187.78 0.4L187.78 0.4 187.58-0.9Q189.23-1.4 191.13-1.65L191.13-1.65Q190.98-13.45 189.53-23.9L189.53-23.9 189.38-23.9Q184.23-8.7 183.88-4.2L183.88-4.2Q182.83-3.85 181.43-2.93 180.03-2 179.28-1.1L179.28-1.1 178.68-1.5Z" opacity="1" transform="matrix(1,0,0,1,0,0)" fill="#000000" class="wordmark-text-0" data-fill-palette-color="quaternary" id="text-0"></path></svg></g></svg></g></svg></g></svg></g><g></g></svg></g><defs></defs></svg><rect width="395.52" height="100.98469978494623" fill="none" stroke="none" visibility="hidden"></rect></g></svg></g></svg>