<svg xmlns="http://www.w3.org/2000/svg" version="1.1" xmlns:xlink="http://www.w3.org/1999/xlink" xmlns:svgjs="http://svgjs.dev/svgjs" width="1500" height="1500" viewBox="0 0 1500 1500"><rect width="1500" height="1500" fill="#ffffff"></rect><g transform="matrix(0.6666666666666666,0,0,0.6666666666666666,250.59005665582237,332.00539811066136)"><svg viewBox="0 0 295 247" data-background-color="#1f0f53" preserveAspectRatio="xMidYMid meet" height="1255" width="1500" xmlns="http://www.w3.org/2000/svg" xmlns:xlink="http://www.w3.org/1999/xlink"><g id="tight-bounds" transform="matrix(1,0,0,1,-0.17406671346759595,-0.09999999999999432)"><svg viewBox="0 0 295.3481334269352 247.2" height="247.2" width="295.3481334269352"><g><svg viewBox="0 0 395.5199999999999 331.0416858422011" height="247.2" width="295.3481334269352"><g transform="matrix(1,0,0,1,0,246.07813028664557)"><svg viewBox="0 0 395.5199999999999 84.96355555555556" height="84.96355555555556" width="395.5199999999999"><g id="textblocktransform"><svg viewBox="0 0 395.5199999999999 84.96355555555556" height="84.96355555555556" width="395.5199999999999" id="textblock"><g><svg viewBox="0 0 395.5199999999999 84.96355555555556" height="84.96355555555556" width="395.5199999999999"><g transform="matrix(1,0,0,1,0,0)"><svg width="395.5199999999999" viewBox="3.5 -37.5 179.53 37.7" height="84.96355555555556" data-palette-color="#ffdb99"><g class="wordmark-text-0" data-fill-palette-color="primary" id="text-0"><path d="M12.9-2.4L12.9 0 3.5 0 3.5-2.4 6.5-2.75 6.5-32.2 3.75-32.55 3.75-35 12.65-35 12.65-32.55 9.9-32.2 9.9-2.75 12.9-2.4ZM33.3-25.25L33.3-25.25Q36.25-25.25 38.9-23.5L38.9-23.5 38.9-37.25 42.15-37.5 42.15-1.15 41.9-1.15Q40.35-0.5 36.72-0.15 33.1 0.2 31.7 0.2L31.7 0.2Q27.5 0.2 24.75-1.9L24.75-1.9Q20.9-4.8 20.9-11.45 20.9-18.1 24.47-21.68 28.05-25.25 33.3-25.25ZM38.9-3.2L38.9-21.35Q36.4-22.3 34-22.3L34-22.3Q29.4-22.3 26.77-19.5 24.15-16.7 24.15-11.55 24.15-6.4 27-4.3L27-4.3Q29.05-2.7 32.17-2.7 35.3-2.7 38.9-3.2L38.9-3.2ZM50.15-12.3L50.15-11.5Q50.15-2.7 58.55-2.7L58.55-2.7Q62.09-2.7 65.05-3.65L65.05-3.65Q65.8-3.9 66.09-4.05L66.09-4.05 66.84-1.4Q65.09-0.35 60.5 0.1L60.5 0.1Q59.2 0.2 57.75 0.2L57.75 0.2Q53.55 0.2 50.75-1.9L50.75-1.9Q46.9-4.75 46.9-11.4 46.9-18.05 50.37-21.63 53.85-25.2 58.8-25.2 63.75-25.2 66.25-22L66.25-22Q68.15-19.45 68.15-15.25L68.15-15.25Q68.15-14.25 68.05-13.15L68.05-13.15 50.2-13.15Q50.15-12.75 50.15-12.3L50.15-12.3ZM59-22.1L59-22.1Q55.9-22.1 53.7-20.23 51.5-18.35 50.65-15.4L50.65-15.4 65.2-15.4Q64.95-20.95 60.9-21.85L60.9-21.85Q60-22.1 59-22.1ZM73.39-19.9L72.49-22.3Q77.94-25 82.04-25.15L82.04-25.15Q85.29-25.15 87.07-24.33 88.84-23.5 89.94-22.03 91.04-20.55 91.04-17.9L91.04-17.9 91.04 0 87.79 0 87.79-1.9Q80.94 0.2 78.99 0.2L78.99 0.2Q78.89 0.2 78.84 0.2L78.84 0.2Q74.34 0.2 72.69-2.55L72.69-2.55Q72.09-3.55 72.02-4.5 71.94-5.45 71.94-6.1L71.94-6.1Q71.94-7.9 73.34-9.33 74.74-10.75 76.69-11.25L76.69-11.25Q79.99-12.1 87.79-12.75L87.79-12.75 87.79-16.8Q87.79-22.25 82.09-22.25L82.09-22.25Q78.09-22.25 73.39-19.9L73.39-19.9ZM74.99-5.7L74.99-5.7Q74.99-2.1 79.94-2.1L79.94-2.1Q83.89-2.1 87.79-3.8L87.79-3.8 87.79-10.95Q79.99-9.85 78.14-9.25L78.14-9.25Q74.99-8.25 74.99-5.7ZM110.39-24.5L109.09-21.5Q108.29-21.95 107.39-21.95 106.49-21.95 106.39-21.9L106.39-21.9Q104.49-21.9 102.57-20.53 100.64-19.15 99.29-17.45L99.29-17.45 99.29 0 96.04 0 96.04-25 99.29-25.25 99.29-19.65Q101.14-22 102.44-22.95L102.44-22.95Q104.84-24.75 107.04-24.85L107.04-24.85Q107.34-24.9 108.14-24.9 108.94-24.9 110.39-24.5L110.39-24.5ZM114.44-25L117.69-25.25 117.69 0 114.44 0 114.44-25ZM115.94-31.7Q114.94-31.7 114.41-32.35 113.89-33 113.89-34 113.89-35 114.46-35.63 115.04-36.25 116.04-36.25 117.04-36.25 117.66-35.63 118.29-35 118.29-33.9 118.29-32.8 117.61-32.25 116.94-31.7 115.94-31.7ZM130.69-3.2L130.69-3.2Q131.79-2.8 134.19-2.8 136.59-2.8 140.39-4.75L140.39-4.75 140.39-25 143.64-25.25 143.64 0 140.39 0 140.39-2.7Q136.69 0.15 132.84 0.15L132.84 0.15Q128.04 0.15 125.89-2.7L125.89-2.7Q124.79-4.1 124.79-6.6L124.79-6.6 124.79-25 128.04-25.25 128.04-7.45Q128.04-4.35 130.69-3.2ZM159.43-22.25L159.43-22.25Q156.63-22.1 153.38-20.4L153.38-20.4 153.38 0 150.13 0 150.13-25 153.38-25.25 153.38-22.45Q156.73-25 159.88-25.15L159.88-25.15Q165.18-25.15 167.18-22.5L167.18-22.5Q170.98-25 174.53-25.15L174.53-25.15Q177.58-25.15 179.23-24.4 180.88-23.65 181.96-22.28 183.03-20.9 183.03-18.4L183.03-18.4 183.03 0 179.78 0 179.78-17.55Q179.78-19.4 178.93-20.4L178.93-20.4Q177.38-22.25 174.53-22.25L174.53-22.25Q171.53-22.25 168.13-20.45L168.13-20.45Q168.38-19.45 168.38-18.4L168.38-18.4 168.38 0 165.13 0 165.13-17.55Q165.13-19.4 164.33-20.4L164.33-20.4Q162.73-22.25 159.43-22.25Z" fill="#000000" data-fill-palette-color="primary"></path></g></svg></g></svg></g></svg></g></svg></g><g transform="matrix(1,0,0,1,94.77879119801051,0)"><svg viewBox="0 0 205.9624176039789 205.9624176039789" height="205.9624176039789" width="205.9624176039789"><g><svg></svg></g><g id="icon-0"><svg viewBox="0 0 205.9624176039789 205.9624176039789" height="205.9624176039789" width="205.9624176039789"><g><path d="M0 102.981c0-56.875 46.106-102.981 102.981-102.981 56.875 0 102.981 46.106 102.981 102.981 0 56.875-46.106 102.981-102.981 102.981-56.875 0-102.981-46.106-102.981-102.981zM102.981 198.3c52.643 0 95.319-42.676 95.319-95.319 0-52.643-42.676-95.319-95.319-95.319-52.643 0-95.319 42.676-95.319 95.319 0 52.643 42.676 95.319 95.319 95.319z" data-fill-palette-color="accent" fill="#000000" stroke="transparent"></path></g><g transform="matrix(1,0,0,1,48.50925988261815,44.22237499462601)"><svg viewBox="0 0 108.9438978387426 117.51766761472689" height="117.51766761472689" width="108.9438978387426"><g><svg xmlns="http://www.w3.org/2000/svg" xmlns:xlink="http://www.w3.org/1999/xlink" version="1.1" x="0" y="0" viewBox="7.478469888270033 2.833000000000001 85.05895037986184 91.75300000000001" enable-background="new 0 0 100 100" xml:space="preserve" height="117.51766761472689" width="108.9438978387426" class="icon-dxe-0" data-fill-palette-color="accent" id="dxe-0"><g fill="#ff5db2" data-fill-palette-color="accent"><path fill="#000000" d="M50 27.748C61.737 27.748 71.252 37.264 71.252 49.001 71.252 56.756 67.096 63.538 60.893 67.25A2.5 2.5 0 0 1 61.924 69.274V74.55A2.52 2.52 0 0 1 59.404 77.071H40.594A2.52 2.52 0 0 1 38.074 74.55V69.274C38.074 68.44 38.483 67.708 39.107 67.25 32.903 63.537 28.748 56.754 28.748 49 28.748 37.264 38.263 27.748 50 27.748M50 24.222C36.337 24.222 25.221 35.337 25.221 49.001 25.221 56.572 28.752 63.751 34.611 68.416A6 6 0 0 0 34.548 69.274V74.55A6.054 6.054 0 0 0 40.595 80.597H59.406A6.054 6.054 0 0 0 65.453 74.55V69.274C65.453 68.985 65.432 68.698 65.391 68.416 71.248 63.75 74.779 56.571 74.779 49 74.779 35.336 63.663 24.222 50 24.222" data-fill-palette-color="accent"></path><g fill="#ff5db2" data-fill-palette-color="accent"><path fill="#000000" d="M61.925 92.318C61.925 93.291 61.134 94.082 60.161 94.082H39.839A1.764 1.764 0 1 1 39.839 90.554H60.161C61.134 90.555 61.925 91.344 61.925 92.318" data-fill-palette-color="accent"></path><path fill="#000000" d="M60.161 94.586H39.839C38.588 94.586 37.571 93.568 37.571 92.318S38.588 90.051 39.839 90.051H60.161C61.411 90.051 62.429 91.068 62.429 92.318S61.411 94.586 60.161 94.586" data-fill-palette-color="accent"></path></g><g fill="#ff5db2" data-fill-palette-color="accent"><path fill="#000000" d="M61.925 85.516C61.925 86.49 61.134 87.28 60.161 87.28H39.839A1.764 1.764 0 1 1 39.839 83.752H60.161C61.134 83.752 61.925 84.541 61.925 85.516" data-fill-palette-color="accent"></path><path fill="#000000" d="M60.161 87.783H39.839C38.588 87.783 37.571 86.765 37.571 85.515S38.588 83.247 39.839 83.247H60.161C61.411 83.247 62.429 84.265 62.429 85.515S61.411 87.783 60.161 87.783" data-fill-palette-color="accent"></path></g><g fill="#ff5db2" data-fill-palette-color="accent"><path fill="#000000" d="M48.86 60.872C45.75 60.605 43.468 59.421 41.839 57.791L44.15 54.502A8.67 8.67 0 0 0 48.86 57.05V52.459C45.808 51.719 42.491 50.563 42.491 46.534 42.491 43.542 44.861 40.994 48.86 40.579V37.823H51.645V40.638C54.045 40.904 56.088 41.793 57.689 43.275L55.348 46.415C54.282 45.437 52.978 44.816 51.645 44.49V48.578C54.726 49.347 58.162 50.533 58.162 54.591 58.162 57.879 56 60.427 51.645 60.871V63.538H48.86zM48.86 47.896V44.312C47.557 44.49 46.816 45.201 46.816 46.208 46.816 47.066 47.645 47.511 48.86 47.896M51.645 53.14V57.11C53.157 56.814 53.867 55.955 53.867 55.007 53.866 54.029 52.947 53.555 51.645 53.14" data-fill-palette-color="accent"></path></g><g fill="#ff5db2" data-fill-palette-color="accent"><g fill="#ff5db2" data-fill-palette-color="accent"><path fill="#000000" d="M49.618 17.069A1.595 1.595 0 0 1 48.023 15.474V4.428A1.594 1.594 0 1 1 51.213 4.428V15.474C51.213 16.355 50.498 17.069 49.618 17.069" data-fill-palette-color="accent"></path></g><g fill="#ff5db2" data-fill-palette-color="accent"><path fill="#000000" d="M68.113 23.717A1.596 1.596 0 0 1 66.798 21.222L73.028 12.102A1.596 1.596 0 1 1 75.661 13.901L69.431 23.022A1.59 1.59 0 0 1 68.113 23.717" data-fill-palette-color="accent"></path></g><g fill="#ff5db2" data-fill-palette-color="accent"><path fill="#000000" d="M79.638 39.643A1.597 1.597 0 0 1 79.057 36.561L89.347 32.544A1.595 1.595 0 0 1 90.507 35.516L80.218 39.531A1.6 1.6 0 0 1 79.638 39.643" data-fill-palette-color="accent"></path></g><g fill="#ff5db2" data-fill-palette-color="accent"><path fill="#000000" d="M90.933 61.777C90.814 61.777 90.692 61.763 90.572 61.735L79.81 59.248A1.594 1.594 0 1 1 80.529 56.141L91.29 58.629A1.593 1.593 0 0 1 90.933 61.777" data-fill-palette-color="accent"></path></g><g fill="#ff5db2" data-fill-palette-color="accent"><path fill="#000000" d="M31.887 23.717A1.59 1.59 0 0 1 30.57 23.022L24.339 13.901A1.596 1.596 0 0 1 26.973 12.102L33.204 21.222A1.597 1.597 0 0 1 31.887 23.717" data-fill-palette-color="accent"></path></g><g fill="#ff5db2" data-fill-palette-color="accent"><path fill="#000000" d="M20.362 39.643C20.17 39.643 19.973 39.608 19.783 39.532L9.493 35.517A1.595 1.595 0 1 1 10.652 32.545L20.942 36.562A1.594 1.594 0 0 1 20.362 39.643" data-fill-palette-color="accent"></path></g><g fill="#ff5db2" data-fill-palette-color="accent"><path fill="#000000" d="M9.068 61.777A1.595 1.595 0 0 1 8.71 58.629L19.472 56.141A1.595 1.595 0 0 1 20.19 59.248L9.429 61.735A1.5 1.5 0 0 1 9.068 61.777" data-fill-palette-color="accent"></path></g></g></g></svg></g></svg></g></svg></g></svg></g><g></g></svg></g><defs></defs></svg><rect width="295.3481334269352" height="247.2" fill="none" stroke="none" visibility="hidden"></rect></g></svg></g></svg>